<?xml version="1.0" encoding="utf-8" standalone="no"?>
<!DOCTYPE svg PUBLIC "-//W3C//DTD SVG 1.1//EN"
  "http://www.w3.org/Graphics/SVG/1.1/DTD/svg11.dtd">
<!-- Created with matplotlib (https://matplotlib.org/) -->
<svg height="288pt" version="1.1" viewBox="0 0 432 288" width="432pt" xmlns="http://www.w3.org/2000/svg" xmlns:xlink="http://www.w3.org/1999/xlink">
 <defs>
  <style type="text/css">
*{stroke-linecap:butt;stroke-linejoin:round;}
  </style>
 </defs>
 <g id="figure_1">
  <g id="patch_1">
   <path d="M 0 288 
L 432 288 
L 432 0 
L 0 0 
z
" style="fill:#ffffff;"/>
  </g>
  <g id="axes_1">
   <g id="patch_2">
    <path d="M 54 252 
L 388.8 252 
L 388.8 34.56 
L 54 34.56 
z
" style="fill:#ffffff;"/>
   </g>
   <g id="matplotlib.axis_1">
    <g id="xtick_1">
     <g id="line2d_1">
      <path clip-path="url(#p4a8fbfdbc4)" d="M 69.218182 252 
L 69.218182 34.56 
" style="fill:none;stroke:#b0b0b0;stroke-linecap:square;stroke-width:0.8;"/>
     </g>
     <g id="line2d_2">
      <defs>
       <path d="M 0 0 
L 0 3.5 
" id="mb5565535f1" style="stroke:#000000;stroke-width:0.8;"/>
      </defs>
      <g>
       <use style="stroke:#000000;stroke-width:0.8;" x="69.218182" xlink:href="#mb5565535f1" y="252"/>
      </g>
     </g>
     <g id="text_1">
      <!-- 0 -->
      <defs>
       <path d="M 31.78125 66.40625 
Q 24.171875 66.40625 20.328125 58.90625 
Q 16.5 51.421875 16.5 36.375 
Q 16.5 21.390625 20.328125 13.890625 
Q 24.171875 6.390625 31.78125 6.390625 
Q 39.453125 6.390625 43.28125 13.890625 
Q 47.125 21.390625 47.125 36.375 
Q 47.125 51.421875 43.28125 58.90625 
Q 39.453125 66.40625 31.78125 66.40625 
z
M 31.78125 74.21875 
Q 44.046875 74.21875 50.515625 64.515625 
Q 56.984375 54.828125 56.984375 36.375 
Q 56.984375 17.96875 50.515625 8.265625 
Q 44.046875 -1.421875 31.78125 -1.421875 
Q 19.53125 -1.421875 13.0625 8.265625 
Q 6.59375 17.96875 6.59375 36.375 
Q 6.59375 54.828125 13.0625 64.515625 
Q 19.53125 74.21875 31.78125 74.21875 
z
" id="DejaVuSans-48"/>
      </defs>
      <g transform="translate(66.036932 266.598437)scale(0.1 -0.1)">
       <use xlink:href="#DejaVuSans-48"/>
      </g>
     </g>
    </g>
    <g id="xtick_2">
     <g id="line2d_3">
      <path clip-path="url(#p4a8fbfdbc4)" d="M 130.090909 252 
L 130.090909 34.56 
" style="fill:none;stroke:#b0b0b0;stroke-linecap:square;stroke-width:0.8;"/>
     </g>
     <g id="line2d_4">
      <g>
       <use style="stroke:#000000;stroke-width:0.8;" x="130.090909" xlink:href="#mb5565535f1" y="252"/>
      </g>
     </g>
     <g id="text_2">
      <!-- 200 -->
      <defs>
       <path d="M 19.1875 8.296875 
L 53.609375 8.296875 
L 53.609375 0 
L 7.328125 0 
L 7.328125 8.296875 
Q 12.9375 14.109375 22.625 23.890625 
Q 32.328125 33.6875 34.8125 36.53125 
Q 39.546875 41.84375 41.421875 45.53125 
Q 43.3125 49.21875 43.3125 52.78125 
Q 43.3125 58.59375 39.234375 62.25 
Q 35.15625 65.921875 28.609375 65.921875 
Q 23.96875 65.921875 18.8125 64.3125 
Q 13.671875 62.703125 7.8125 59.421875 
L 7.8125 69.390625 
Q 13.765625 71.78125 18.9375 73 
Q 24.125 74.21875 28.421875 74.21875 
Q 39.75 74.21875 46.484375 68.546875 
Q 53.21875 62.890625 53.21875 53.421875 
Q 53.21875 48.921875 51.53125 44.890625 
Q 49.859375 40.875 45.40625 35.40625 
Q 44.1875 33.984375 37.640625 27.21875 
Q 31.109375 20.453125 19.1875 8.296875 
z
" id="DejaVuSans-50"/>
      </defs>
      <g transform="translate(120.547159 266.598437)scale(0.1 -0.1)">
       <use xlink:href="#DejaVuSans-50"/>
       <use x="63.623047" xlink:href="#DejaVuSans-48"/>
       <use x="127.246094" xlink:href="#DejaVuSans-48"/>
      </g>
     </g>
    </g>
    <g id="xtick_3">
     <g id="line2d_5">
      <path clip-path="url(#p4a8fbfdbc4)" d="M 190.963636 252 
L 190.963636 34.56 
" style="fill:none;stroke:#b0b0b0;stroke-linecap:square;stroke-width:0.8;"/>
     </g>
     <g id="line2d_6">
      <g>
       <use style="stroke:#000000;stroke-width:0.8;" x="190.963636" xlink:href="#mb5565535f1" y="252"/>
      </g>
     </g>
     <g id="text_3">
      <!-- 400 -->
      <defs>
       <path d="M 37.796875 64.3125 
L 12.890625 25.390625 
L 37.796875 25.390625 
z
M 35.203125 72.90625 
L 47.609375 72.90625 
L 47.609375 25.390625 
L 58.015625 25.390625 
L 58.015625 17.1875 
L 47.609375 17.1875 
L 47.609375 0 
L 37.796875 0 
L 37.796875 17.1875 
L 4.890625 17.1875 
L 4.890625 26.703125 
z
" id="DejaVuSans-52"/>
      </defs>
      <g transform="translate(181.419886 266.598437)scale(0.1 -0.1)">
       <use xlink:href="#DejaVuSans-52"/>
       <use x="63.623047" xlink:href="#DejaVuSans-48"/>
       <use x="127.246094" xlink:href="#DejaVuSans-48"/>
      </g>
     </g>
    </g>
    <g id="xtick_4">
     <g id="line2d_7">
      <path clip-path="url(#p4a8fbfdbc4)" d="M 251.836364 252 
L 251.836364 34.56 
" style="fill:none;stroke:#b0b0b0;stroke-linecap:square;stroke-width:0.8;"/>
     </g>
     <g id="line2d_8">
      <g>
       <use style="stroke:#000000;stroke-width:0.8;" x="251.836364" xlink:href="#mb5565535f1" y="252"/>
      </g>
     </g>
     <g id="text_4">
      <!-- 600 -->
      <defs>
       <path d="M 33.015625 40.375 
Q 26.375 40.375 22.484375 35.828125 
Q 18.609375 31.296875 18.609375 23.390625 
Q 18.609375 15.53125 22.484375 10.953125 
Q 26.375 6.390625 33.015625 6.390625 
Q 39.65625 6.390625 43.53125 10.953125 
Q 47.40625 15.53125 47.40625 23.390625 
Q 47.40625 31.296875 43.53125 35.828125 
Q 39.65625 40.375 33.015625 40.375 
z
M 52.59375 71.296875 
L 52.59375 62.3125 
Q 48.875 64.0625 45.09375 64.984375 
Q 41.3125 65.921875 37.59375 65.921875 
Q 27.828125 65.921875 22.671875 59.328125 
Q 17.53125 52.734375 16.796875 39.40625 
Q 19.671875 43.65625 24.015625 45.921875 
Q 28.375 48.1875 33.59375 48.1875 
Q 44.578125 48.1875 50.953125 41.515625 
Q 57.328125 34.859375 57.328125 23.390625 
Q 57.328125 12.15625 50.6875 5.359375 
Q 44.046875 -1.421875 33.015625 -1.421875 
Q 20.359375 -1.421875 13.671875 8.265625 
Q 6.984375 17.96875 6.984375 36.375 
Q 6.984375 53.65625 15.1875 63.9375 
Q 23.390625 74.21875 37.203125 74.21875 
Q 40.921875 74.21875 44.703125 73.484375 
Q 48.484375 72.75 52.59375 71.296875 
z
" id="DejaVuSans-54"/>
      </defs>
      <g transform="translate(242.292614 266.598437)scale(0.1 -0.1)">
       <use xlink:href="#DejaVuSans-54"/>
       <use x="63.623047" xlink:href="#DejaVuSans-48"/>
       <use x="127.246094" xlink:href="#DejaVuSans-48"/>
      </g>
     </g>
    </g>
    <g id="xtick_5">
     <g id="line2d_9">
      <path clip-path="url(#p4a8fbfdbc4)" d="M 312.709091 252 
L 312.709091 34.56 
" style="fill:none;stroke:#b0b0b0;stroke-linecap:square;stroke-width:0.8;"/>
     </g>
     <g id="line2d_10">
      <g>
       <use style="stroke:#000000;stroke-width:0.8;" x="312.709091" xlink:href="#mb5565535f1" y="252"/>
      </g>
     </g>
     <g id="text_5">
      <!-- 800 -->
      <defs>
       <path d="M 31.78125 34.625 
Q 24.75 34.625 20.71875 30.859375 
Q 16.703125 27.09375 16.703125 20.515625 
Q 16.703125 13.921875 20.71875 10.15625 
Q 24.75 6.390625 31.78125 6.390625 
Q 38.8125 6.390625 42.859375 10.171875 
Q 46.921875 13.96875 46.921875 20.515625 
Q 46.921875 27.09375 42.890625 30.859375 
Q 38.875 34.625 31.78125 34.625 
z
M 21.921875 38.8125 
Q 15.578125 40.375 12.03125 44.71875 
Q 8.5 49.078125 8.5 55.328125 
Q 8.5 64.0625 14.71875 69.140625 
Q 20.953125 74.21875 31.78125 74.21875 
Q 42.671875 74.21875 48.875 69.140625 
Q 55.078125 64.0625 55.078125 55.328125 
Q 55.078125 49.078125 51.53125 44.71875 
Q 48 40.375 41.703125 38.8125 
Q 48.828125 37.15625 52.796875 32.3125 
Q 56.78125 27.484375 56.78125 20.515625 
Q 56.78125 9.90625 50.3125 4.234375 
Q 43.84375 -1.421875 31.78125 -1.421875 
Q 19.734375 -1.421875 13.25 4.234375 
Q 6.78125 9.90625 6.78125 20.515625 
Q 6.78125 27.484375 10.78125 32.3125 
Q 14.796875 37.15625 21.921875 38.8125 
z
M 18.3125 54.390625 
Q 18.3125 48.734375 21.84375 45.5625 
Q 25.390625 42.390625 31.78125 42.390625 
Q 38.140625 42.390625 41.71875 45.5625 
Q 45.3125 48.734375 45.3125 54.390625 
Q 45.3125 60.0625 41.71875 63.234375 
Q 38.140625 66.40625 31.78125 66.40625 
Q 25.390625 66.40625 21.84375 63.234375 
Q 18.3125 60.0625 18.3125 54.390625 
z
" id="DejaVuSans-56"/>
      </defs>
      <g transform="translate(303.165341 266.598437)scale(0.1 -0.1)">
       <use xlink:href="#DejaVuSans-56"/>
       <use x="63.623047" xlink:href="#DejaVuSans-48"/>
       <use x="127.246094" xlink:href="#DejaVuSans-48"/>
      </g>
     </g>
    </g>
    <g id="xtick_6">
     <g id="line2d_11">
      <path clip-path="url(#p4a8fbfdbc4)" d="M 373.581818 252 
L 373.581818 34.56 
" style="fill:none;stroke:#b0b0b0;stroke-linecap:square;stroke-width:0.8;"/>
     </g>
     <g id="line2d_12">
      <g>
       <use style="stroke:#000000;stroke-width:0.8;" x="373.581818" xlink:href="#mb5565535f1" y="252"/>
      </g>
     </g>
     <g id="text_6">
      <!-- 1000 -->
      <defs>
       <path d="M 12.40625 8.296875 
L 28.515625 8.296875 
L 28.515625 63.921875 
L 10.984375 60.40625 
L 10.984375 69.390625 
L 28.421875 72.90625 
L 38.28125 72.90625 
L 38.28125 8.296875 
L 54.390625 8.296875 
L 54.390625 0 
L 12.40625 0 
z
" id="DejaVuSans-49"/>
      </defs>
      <g transform="translate(360.856818 266.598437)scale(0.1 -0.1)">
       <use xlink:href="#DejaVuSans-49"/>
       <use x="63.623047" xlink:href="#DejaVuSans-48"/>
       <use x="127.246094" xlink:href="#DejaVuSans-48"/>
       <use x="190.869141" xlink:href="#DejaVuSans-48"/>
      </g>
     </g>
    </g>
    <g id="text_7">
     <!-- Episode number -->
     <defs>
      <path d="M 9.8125 72.90625 
L 55.90625 72.90625 
L 55.90625 64.59375 
L 19.671875 64.59375 
L 19.671875 43.015625 
L 54.390625 43.015625 
L 54.390625 34.71875 
L 19.671875 34.71875 
L 19.671875 8.296875 
L 56.78125 8.296875 
L 56.78125 0 
L 9.8125 0 
z
" id="DejaVuSans-69"/>
      <path d="M 18.109375 8.203125 
L 18.109375 -20.796875 
L 9.078125 -20.796875 
L 9.078125 54.6875 
L 18.109375 54.6875 
L 18.109375 46.390625 
Q 20.953125 51.265625 25.265625 53.625 
Q 29.59375 56 35.59375 56 
Q 45.5625 56 51.78125 48.09375 
Q 58.015625 40.1875 58.015625 27.296875 
Q 58.015625 14.40625 51.78125 6.484375 
Q 45.5625 -1.421875 35.59375 -1.421875 
Q 29.59375 -1.421875 25.265625 0.953125 
Q 20.953125 3.328125 18.109375 8.203125 
z
M 48.6875 27.296875 
Q 48.6875 37.203125 44.609375 42.84375 
Q 40.53125 48.484375 33.40625 48.484375 
Q 26.265625 48.484375 22.1875 42.84375 
Q 18.109375 37.203125 18.109375 27.296875 
Q 18.109375 17.390625 22.1875 11.75 
Q 26.265625 6.109375 33.40625 6.109375 
Q 40.53125 6.109375 44.609375 11.75 
Q 48.6875 17.390625 48.6875 27.296875 
z
" id="DejaVuSans-112"/>
      <path d="M 9.421875 54.6875 
L 18.40625 54.6875 
L 18.40625 0 
L 9.421875 0 
z
M 9.421875 75.984375 
L 18.40625 75.984375 
L 18.40625 64.59375 
L 9.421875 64.59375 
z
" id="DejaVuSans-105"/>
      <path d="M 44.28125 53.078125 
L 44.28125 44.578125 
Q 40.484375 46.53125 36.375 47.5 
Q 32.28125 48.484375 27.875 48.484375 
Q 21.1875 48.484375 17.84375 46.4375 
Q 14.5 44.390625 14.5 40.28125 
Q 14.5 37.15625 16.890625 35.375 
Q 19.28125 33.59375 26.515625 31.984375 
L 29.59375 31.296875 
Q 39.15625 29.25 43.1875 25.515625 
Q 47.21875 21.78125 47.21875 15.09375 
Q 47.21875 7.46875 41.1875 3.015625 
Q 35.15625 -1.421875 24.609375 -1.421875 
Q 20.21875 -1.421875 15.453125 -0.5625 
Q 10.6875 0.296875 5.421875 2 
L 5.421875 11.28125 
Q 10.40625 8.6875 15.234375 7.390625 
Q 20.0625 6.109375 24.8125 6.109375 
Q 31.15625 6.109375 34.5625 8.28125 
Q 37.984375 10.453125 37.984375 14.40625 
Q 37.984375 18.0625 35.515625 20.015625 
Q 33.0625 21.96875 24.703125 23.78125 
L 21.578125 24.515625 
Q 13.234375 26.265625 9.515625 29.90625 
Q 5.8125 33.546875 5.8125 39.890625 
Q 5.8125 47.609375 11.28125 51.796875 
Q 16.75 56 26.8125 56 
Q 31.78125 56 36.171875 55.265625 
Q 40.578125 54.546875 44.28125 53.078125 
z
" id="DejaVuSans-115"/>
      <path d="M 30.609375 48.390625 
Q 23.390625 48.390625 19.1875 42.75 
Q 14.984375 37.109375 14.984375 27.296875 
Q 14.984375 17.484375 19.15625 11.84375 
Q 23.34375 6.203125 30.609375 6.203125 
Q 37.796875 6.203125 41.984375 11.859375 
Q 46.1875 17.53125 46.1875 27.296875 
Q 46.1875 37.015625 41.984375 42.703125 
Q 37.796875 48.390625 30.609375 48.390625 
z
M 30.609375 56 
Q 42.328125 56 49.015625 48.375 
Q 55.71875 40.765625 55.71875 27.296875 
Q 55.71875 13.875 49.015625 6.21875 
Q 42.328125 -1.421875 30.609375 -1.421875 
Q 18.84375 -1.421875 12.171875 6.21875 
Q 5.515625 13.875 5.515625 27.296875 
Q 5.515625 40.765625 12.171875 48.375 
Q 18.84375 56 30.609375 56 
z
" id="DejaVuSans-111"/>
      <path d="M 45.40625 46.390625 
L 45.40625 75.984375 
L 54.390625 75.984375 
L 54.390625 0 
L 45.40625 0 
L 45.40625 8.203125 
Q 42.578125 3.328125 38.25 0.953125 
Q 33.9375 -1.421875 27.875 -1.421875 
Q 17.96875 -1.421875 11.734375 6.484375 
Q 5.515625 14.40625 5.515625 27.296875 
Q 5.515625 40.1875 11.734375 48.09375 
Q 17.96875 56 27.875 56 
Q 33.9375 56 38.25 53.625 
Q 42.578125 51.265625 45.40625 46.390625 
z
M 14.796875 27.296875 
Q 14.796875 17.390625 18.875 11.75 
Q 22.953125 6.109375 30.078125 6.109375 
Q 37.203125 6.109375 41.296875 11.75 
Q 45.40625 17.390625 45.40625 27.296875 
Q 45.40625 37.203125 41.296875 42.84375 
Q 37.203125 48.484375 30.078125 48.484375 
Q 22.953125 48.484375 18.875 42.84375 
Q 14.796875 37.203125 14.796875 27.296875 
z
" id="DejaVuSans-100"/>
      <path d="M 56.203125 29.59375 
L 56.203125 25.203125 
L 14.890625 25.203125 
Q 15.484375 15.921875 20.484375 11.0625 
Q 25.484375 6.203125 34.421875 6.203125 
Q 39.59375 6.203125 44.453125 7.46875 
Q 49.3125 8.734375 54.109375 11.28125 
L 54.109375 2.78125 
Q 49.265625 0.734375 44.1875 -0.34375 
Q 39.109375 -1.421875 33.890625 -1.421875 
Q 20.796875 -1.421875 13.15625 6.1875 
Q 5.515625 13.8125 5.515625 26.8125 
Q 5.515625 40.234375 12.765625 48.109375 
Q 20.015625 56 32.328125 56 
Q 43.359375 56 49.78125 48.890625 
Q 56.203125 41.796875 56.203125 29.59375 
z
M 47.21875 32.234375 
Q 47.125 39.59375 43.09375 43.984375 
Q 39.0625 48.390625 32.421875 48.390625 
Q 24.90625 48.390625 20.390625 44.140625 
Q 15.875 39.890625 15.1875 32.171875 
z
" id="DejaVuSans-101"/>
      <path id="DejaVuSans-32"/>
      <path d="M 54.890625 33.015625 
L 54.890625 0 
L 45.90625 0 
L 45.90625 32.71875 
Q 45.90625 40.484375 42.875 44.328125 
Q 39.84375 48.1875 33.796875 48.1875 
Q 26.515625 48.1875 22.3125 43.546875 
Q 18.109375 38.921875 18.109375 30.90625 
L 18.109375 0 
L 9.078125 0 
L 9.078125 54.6875 
L 18.109375 54.6875 
L 18.109375 46.1875 
Q 21.34375 51.125 25.703125 53.5625 
Q 30.078125 56 35.796875 56 
Q 45.21875 56 50.046875 50.171875 
Q 54.890625 44.34375 54.890625 33.015625 
z
" id="DejaVuSans-110"/>
      <path d="M 8.5 21.578125 
L 8.5 54.6875 
L 17.484375 54.6875 
L 17.484375 21.921875 
Q 17.484375 14.15625 20.5 10.265625 
Q 23.53125 6.390625 29.59375 6.390625 
Q 36.859375 6.390625 41.078125 11.03125 
Q 45.3125 15.671875 45.3125 23.6875 
L 45.3125 54.6875 
L 54.296875 54.6875 
L 54.296875 0 
L 45.3125 0 
L 45.3125 8.40625 
Q 42.046875 3.421875 37.71875 1 
Q 33.40625 -1.421875 27.6875 -1.421875 
Q 18.265625 -1.421875 13.375 4.4375 
Q 8.5 10.296875 8.5 21.578125 
z
M 31.109375 56 
z
" id="DejaVuSans-117"/>
      <path d="M 52 44.1875 
Q 55.375 50.25 60.0625 53.125 
Q 64.75 56 71.09375 56 
Q 79.640625 56 84.28125 50.015625 
Q 88.921875 44.046875 88.921875 33.015625 
L 88.921875 0 
L 79.890625 0 
L 79.890625 32.71875 
Q 79.890625 40.578125 77.09375 44.375 
Q 74.3125 48.1875 68.609375 48.1875 
Q 61.625 48.1875 57.5625 43.546875 
Q 53.515625 38.921875 53.515625 30.90625 
L 53.515625 0 
L 44.484375 0 
L 44.484375 32.71875 
Q 44.484375 40.625 41.703125 44.40625 
Q 38.921875 48.1875 33.109375 48.1875 
Q 26.21875 48.1875 22.15625 43.53125 
Q 18.109375 38.875 18.109375 30.90625 
L 18.109375 0 
L 9.078125 0 
L 9.078125 54.6875 
L 18.109375 54.6875 
L 18.109375 46.1875 
Q 21.1875 51.21875 25.484375 53.609375 
Q 29.78125 56 35.6875 56 
Q 41.65625 56 45.828125 52.96875 
Q 50 49.953125 52 44.1875 
z
" id="DejaVuSans-109"/>
      <path d="M 48.6875 27.296875 
Q 48.6875 37.203125 44.609375 42.84375 
Q 40.53125 48.484375 33.40625 48.484375 
Q 26.265625 48.484375 22.1875 42.84375 
Q 18.109375 37.203125 18.109375 27.296875 
Q 18.109375 17.390625 22.1875 11.75 
Q 26.265625 6.109375 33.40625 6.109375 
Q 40.53125 6.109375 44.609375 11.75 
Q 48.6875 17.390625 48.6875 27.296875 
z
M 18.109375 46.390625 
Q 20.953125 51.265625 25.265625 53.625 
Q 29.59375 56 35.59375 56 
Q 45.5625 56 51.78125 48.09375 
Q 58.015625 40.1875 58.015625 27.296875 
Q 58.015625 14.40625 51.78125 6.484375 
Q 45.5625 -1.421875 35.59375 -1.421875 
Q 29.59375 -1.421875 25.265625 0.953125 
Q 20.953125 3.328125 18.109375 8.203125 
L 18.109375 0 
L 9.078125 0 
L 9.078125 75.984375 
L 18.109375 75.984375 
z
" id="DejaVuSans-98"/>
      <path d="M 41.109375 46.296875 
Q 39.59375 47.171875 37.8125 47.578125 
Q 36.03125 48 33.890625 48 
Q 26.265625 48 22.1875 43.046875 
Q 18.109375 38.09375 18.109375 28.8125 
L 18.109375 0 
L 9.078125 0 
L 9.078125 54.6875 
L 18.109375 54.6875 
L 18.109375 46.1875 
Q 20.953125 51.171875 25.484375 53.578125 
Q 30.03125 56 36.53125 56 
Q 37.453125 56 38.578125 55.875 
Q 39.703125 55.765625 41.0625 55.515625 
z
" id="DejaVuSans-114"/>
     </defs>
     <g transform="translate(180.659375 280.276563)scale(0.1 -0.1)">
      <use xlink:href="#DejaVuSans-69"/>
      <use x="63.183594" xlink:href="#DejaVuSans-112"/>
      <use x="126.660156" xlink:href="#DejaVuSans-105"/>
      <use x="154.443359" xlink:href="#DejaVuSans-115"/>
      <use x="206.542969" xlink:href="#DejaVuSans-111"/>
      <use x="267.724609" xlink:href="#DejaVuSans-100"/>
      <use x="331.201172" xlink:href="#DejaVuSans-101"/>
      <use x="392.724609" xlink:href="#DejaVuSans-32"/>
      <use x="424.511719" xlink:href="#DejaVuSans-110"/>
      <use x="487.890625" xlink:href="#DejaVuSans-117"/>
      <use x="551.269531" xlink:href="#DejaVuSans-109"/>
      <use x="648.681641" xlink:href="#DejaVuSans-98"/>
      <use x="712.158203" xlink:href="#DejaVuSans-101"/>
      <use x="773.681641" xlink:href="#DejaVuSans-114"/>
     </g>
    </g>
   </g>
   <g id="matplotlib.axis_2">
    <g id="ytick_1">
     <g id="line2d_13">
      <path clip-path="url(#p4a8fbfdbc4)" d="M 54 241.728371 
L 388.8 241.728371 
" style="fill:none;stroke:#b0b0b0;stroke-linecap:square;stroke-width:0.8;"/>
     </g>
     <g id="line2d_14">
      <defs>
       <path d="M 0 0 
L -3.5 0 
" id="m5b467a7265" style="stroke:#000000;stroke-width:0.8;"/>
      </defs>
      <g>
       <use style="stroke:#000000;stroke-width:0.8;" x="54" xlink:href="#m5b467a7265" y="241.728371"/>
      </g>
     </g>
     <g id="text_8">
      <!-- 0 -->
      <g transform="translate(40.6375 245.52759)scale(0.1 -0.1)">
       <use xlink:href="#DejaVuSans-48"/>
      </g>
     </g>
    </g>
    <g id="ytick_2">
     <g id="line2d_15">
      <path clip-path="url(#p4a8fbfdbc4)" d="M 54 203.08279 
L 388.8 203.08279 
" style="fill:none;stroke:#b0b0b0;stroke-linecap:square;stroke-width:0.8;"/>
     </g>
     <g id="line2d_16">
      <g>
       <use style="stroke:#000000;stroke-width:0.8;" x="54" xlink:href="#m5b467a7265" y="203.08279"/>
      </g>
     </g>
     <g id="text_9">
      <!-- 200000 -->
      <g transform="translate(8.825 206.882009)scale(0.1 -0.1)">
       <use xlink:href="#DejaVuSans-50"/>
       <use x="63.623047" xlink:href="#DejaVuSans-48"/>
       <use x="127.246094" xlink:href="#DejaVuSans-48"/>
       <use x="190.869141" xlink:href="#DejaVuSans-48"/>
       <use x="254.492188" xlink:href="#DejaVuSans-48"/>
       <use x="318.115234" xlink:href="#DejaVuSans-48"/>
      </g>
     </g>
    </g>
    <g id="ytick_3">
     <g id="line2d_17">
      <path clip-path="url(#p4a8fbfdbc4)" d="M 54 164.437209 
L 388.8 164.437209 
" style="fill:none;stroke:#b0b0b0;stroke-linecap:square;stroke-width:0.8;"/>
     </g>
     <g id="line2d_18">
      <g>
       <use style="stroke:#000000;stroke-width:0.8;" x="54" xlink:href="#m5b467a7265" y="164.437209"/>
      </g>
     </g>
     <g id="text_10">
      <!-- 400000 -->
      <g transform="translate(8.825 168.236428)scale(0.1 -0.1)">
       <use xlink:href="#DejaVuSans-52"/>
       <use x="63.623047" xlink:href="#DejaVuSans-48"/>
       <use x="127.246094" xlink:href="#DejaVuSans-48"/>
       <use x="190.869141" xlink:href="#DejaVuSans-48"/>
       <use x="254.492188" xlink:href="#DejaVuSans-48"/>
       <use x="318.115234" xlink:href="#DejaVuSans-48"/>
      </g>
     </g>
    </g>
    <g id="ytick_4">
     <g id="line2d_19">
      <path clip-path="url(#p4a8fbfdbc4)" d="M 54 125.791628 
L 388.8 125.791628 
" style="fill:none;stroke:#b0b0b0;stroke-linecap:square;stroke-width:0.8;"/>
     </g>
     <g id="line2d_20">
      <g>
       <use style="stroke:#000000;stroke-width:0.8;" x="54" xlink:href="#m5b467a7265" y="125.791628"/>
      </g>
     </g>
     <g id="text_11">
      <!-- 600000 -->
      <g transform="translate(8.825 129.590847)scale(0.1 -0.1)">
       <use xlink:href="#DejaVuSans-54"/>
       <use x="63.623047" xlink:href="#DejaVuSans-48"/>
       <use x="127.246094" xlink:href="#DejaVuSans-48"/>
       <use x="190.869141" xlink:href="#DejaVuSans-48"/>
       <use x="254.492188" xlink:href="#DejaVuSans-48"/>
       <use x="318.115234" xlink:href="#DejaVuSans-48"/>
      </g>
     </g>
    </g>
    <g id="ytick_5">
     <g id="line2d_21">
      <path clip-path="url(#p4a8fbfdbc4)" d="M 54 87.146047 
L 388.8 87.146047 
" style="fill:none;stroke:#b0b0b0;stroke-linecap:square;stroke-width:0.8;"/>
     </g>
     <g id="line2d_22">
      <g>
       <use style="stroke:#000000;stroke-width:0.8;" x="54" xlink:href="#m5b467a7265" y="87.146047"/>
      </g>
     </g>
     <g id="text_12">
      <!-- 800000 -->
      <g transform="translate(8.825 90.945266)scale(0.1 -0.1)">
       <use xlink:href="#DejaVuSans-56"/>
       <use x="63.623047" xlink:href="#DejaVuSans-48"/>
       <use x="127.246094" xlink:href="#DejaVuSans-48"/>
       <use x="190.869141" xlink:href="#DejaVuSans-48"/>
       <use x="254.492188" xlink:href="#DejaVuSans-48"/>
       <use x="318.115234" xlink:href="#DejaVuSans-48"/>
      </g>
     </g>
    </g>
    <g id="ytick_6">
     <g id="line2d_23">
      <path clip-path="url(#p4a8fbfdbc4)" d="M 54 48.500466 
L 388.8 48.500466 
" style="fill:none;stroke:#b0b0b0;stroke-linecap:square;stroke-width:0.8;"/>
     </g>
     <g id="line2d_24">
      <g>
       <use style="stroke:#000000;stroke-width:0.8;" x="54" xlink:href="#m5b467a7265" y="48.500466"/>
      </g>
     </g>
     <g id="text_13">
      <!-- 1000000 -->
      <g transform="translate(2.4625 52.299685)scale(0.1 -0.1)">
       <use xlink:href="#DejaVuSans-49"/>
       <use x="63.623047" xlink:href="#DejaVuSans-48"/>
       <use x="127.246094" xlink:href="#DejaVuSans-48"/>
       <use x="190.869141" xlink:href="#DejaVuSans-48"/>
       <use x="254.492188" xlink:href="#DejaVuSans-48"/>
       <use x="318.115234" xlink:href="#DejaVuSans-48"/>
       <use x="381.738281" xlink:href="#DejaVuSans-48"/>
      </g>
     </g>
    </g>
    <g id="text_14">
     <!-- Cummulative reward -->
     <defs>
      <path d="M 64.40625 67.28125 
L 64.40625 56.890625 
Q 59.421875 61.53125 53.78125 63.8125 
Q 48.140625 66.109375 41.796875 66.109375 
Q 29.296875 66.109375 22.65625 58.46875 
Q 16.015625 50.828125 16.015625 36.375 
Q 16.015625 21.96875 22.65625 14.328125 
Q 29.296875 6.6875 41.796875 6.6875 
Q 48.140625 6.6875 53.78125 8.984375 
Q 59.421875 11.28125 64.40625 15.921875 
L 64.40625 5.609375 
Q 59.234375 2.09375 53.4375 0.328125 
Q 47.65625 -1.421875 41.21875 -1.421875 
Q 24.65625 -1.421875 15.125 8.703125 
Q 5.609375 18.84375 5.609375 36.375 
Q 5.609375 53.953125 15.125 64.078125 
Q 24.65625 74.21875 41.21875 74.21875 
Q 47.75 74.21875 53.53125 72.484375 
Q 59.328125 70.75 64.40625 67.28125 
z
" id="DejaVuSans-67"/>
      <path d="M 9.421875 75.984375 
L 18.40625 75.984375 
L 18.40625 0 
L 9.421875 0 
z
" id="DejaVuSans-108"/>
      <path d="M 34.28125 27.484375 
Q 23.390625 27.484375 19.1875 25 
Q 14.984375 22.515625 14.984375 16.5 
Q 14.984375 11.71875 18.140625 8.90625 
Q 21.296875 6.109375 26.703125 6.109375 
Q 34.1875 6.109375 38.703125 11.40625 
Q 43.21875 16.703125 43.21875 25.484375 
L 43.21875 27.484375 
z
M 52.203125 31.203125 
L 52.203125 0 
L 43.21875 0 
L 43.21875 8.296875 
Q 40.140625 3.328125 35.546875 0.953125 
Q 30.953125 -1.421875 24.3125 -1.421875 
Q 15.921875 -1.421875 10.953125 3.296875 
Q 6 8.015625 6 15.921875 
Q 6 25.140625 12.171875 29.828125 
Q 18.359375 34.515625 30.609375 34.515625 
L 43.21875 34.515625 
L 43.21875 35.40625 
Q 43.21875 41.609375 39.140625 45 
Q 35.0625 48.390625 27.6875 48.390625 
Q 23 48.390625 18.546875 47.265625 
Q 14.109375 46.140625 10.015625 43.890625 
L 10.015625 52.203125 
Q 14.9375 54.109375 19.578125 55.046875 
Q 24.21875 56 28.609375 56 
Q 40.484375 56 46.34375 49.84375 
Q 52.203125 43.703125 52.203125 31.203125 
z
" id="DejaVuSans-97"/>
      <path d="M 18.3125 70.21875 
L 18.3125 54.6875 
L 36.8125 54.6875 
L 36.8125 47.703125 
L 18.3125 47.703125 
L 18.3125 18.015625 
Q 18.3125 11.328125 20.140625 9.421875 
Q 21.96875 7.515625 27.59375 7.515625 
L 36.8125 7.515625 
L 36.8125 0 
L 27.59375 0 
Q 17.1875 0 13.234375 3.875 
Q 9.28125 7.765625 9.28125 18.015625 
L 9.28125 47.703125 
L 2.6875 47.703125 
L 2.6875 54.6875 
L 9.28125 54.6875 
L 9.28125 70.21875 
z
" id="DejaVuSans-116"/>
      <path d="M 2.984375 54.6875 
L 12.5 54.6875 
L 29.59375 8.796875 
L 46.6875 54.6875 
L 56.203125 54.6875 
L 35.6875 0 
L 23.484375 0 
z
" id="DejaVuSans-118"/>
      <path d="M 4.203125 54.6875 
L 13.1875 54.6875 
L 24.421875 12.015625 
L 35.59375 54.6875 
L 46.1875 54.6875 
L 57.421875 12.015625 
L 68.609375 54.6875 
L 77.59375 54.6875 
L 63.28125 0 
L 52.6875 0 
L 40.921875 44.828125 
L 29.109375 0 
L 18.5 0 
z
" id="DejaVuSans-119"/>
     </defs>
     <g transform="translate(-3.617188 195.789375)rotate(-90)scale(0.1 -0.1)">
      <use xlink:href="#DejaVuSans-67"/>
      <use x="69.824219" xlink:href="#DejaVuSans-117"/>
      <use x="133.203125" xlink:href="#DejaVuSans-109"/>
      <use x="230.615234" xlink:href="#DejaVuSans-109"/>
      <use x="328.027344" xlink:href="#DejaVuSans-117"/>
      <use x="391.40625" xlink:href="#DejaVuSans-108"/>
      <use x="419.189453" xlink:href="#DejaVuSans-97"/>
      <use x="480.46875" xlink:href="#DejaVuSans-116"/>
      <use x="519.677734" xlink:href="#DejaVuSans-105"/>
      <use x="547.460938" xlink:href="#DejaVuSans-118"/>
      <use x="606.640625" xlink:href="#DejaVuSans-101"/>
      <use x="668.164062" xlink:href="#DejaVuSans-32"/>
      <use x="699.951172" xlink:href="#DejaVuSans-114"/>
      <use x="741.033203" xlink:href="#DejaVuSans-101"/>
      <use x="802.556641" xlink:href="#DejaVuSans-119"/>
      <use x="884.34375" xlink:href="#DejaVuSans-97"/>
      <use x="945.623047" xlink:href="#DejaVuSans-114"/>
      <use x="986.720703" xlink:href="#DejaVuSans-100"/>
     </g>
    </g>
   </g>
   <g id="line2d_25">
    <path clip-path="url(#p4a8fbfdbc4)" d="M 69.218182 241.967297 
L 74.088 242.035614 
L 79.262182 242.093346 
L 82.610182 242.116364 
L 83.218909 241.462864 
L 83.523273 241.97483 
L 84.132 242.046079 
L 84.740727 242.042785 
L 85.045091 240.959777 
L 85.349455 240.605477 
L 85.653818 240.485818 
L 86.262545 239.686474 
L 86.566909 239.548713 
L 86.871273 239.13224 
L 87.175636 239.030392 
L 87.48 238.397294 
L 87.784364 238.270039 
L 88.088727 237.82745 
L 88.697455 237.678141 
L 89.001818 237.242666 
L 89.306182 237.166605 
L 89.610545 236.714552 
L 89.914909 236.635044 
L 90.219273 236.171893 
L 90.523636 236.108405 
L 90.828 235.627532 
L 91.132364 235.595133 
L 91.436727 235.113948 
L 91.741091 235.058428 
L 92.349818 234.066353 
L 92.654182 233.996546 
L 92.958545 234.393151 
L 93.567273 233.485814 
L 93.871636 233.48825 
L 94.176 232.855131 
L 94.480364 232.813692 
L 94.784727 232.339163 
L 95.089091 232.334529 
L 95.393455 231.852766 
L 95.697818 232.279923 
L 96.002182 231.813355 
L 96.306545 231.759361 
L 96.610909 231.266434 
L 96.915273 231.236507 
L 97.219636 230.769985 
L 97.524 230.747423 
L 98.437091 229.115378 
L 99.045818 227.983447 
L 99.350182 228.438506 
L 99.654545 227.97928 
L 99.958909 227.96972 
L 100.263273 227.486426 
L 100.567636 227.517728 
L 100.872 227.008768 
L 101.176364 227.001915 
L 101.480727 226.542877 
L 101.785091 226.550489 
L 102.089455 226.074323 
L 102.393818 226.065479 
L 102.698182 225.28744 
L 103.306909 225.185612 
L 103.611273 225.673261 
L 103.915636 224.904629 
L 104.22 226.152747 
L 104.524364 225.659673 
L 104.828727 225.630885 
L 105.133091 225.137234 
L 105.437455 225.124731 
L 105.741818 224.680242 
L 106.046182 224.652143 
L 106.350545 224.156672 
L 106.654909 224.168456 
L 106.959273 223.688251 
L 107.263636 223.657028 
L 107.568 222.909171 
L 107.872364 222.903955 
L 108.176727 222.418492 
L 108.481091 222.453993 
L 108.785455 221.970002 
L 109.089818 221.941443 
L 109.394182 221.453458 
L 109.698545 221.475336 
L 110.002909 221.044926 
L 110.307273 221.049161 
L 110.611636 220.590728 
L 110.916 220.552978 
L 111.220364 220.046472 
L 111.524727 220.066282 
L 111.829091 219.596101 
L 112.133455 219.595116 
L 113.046545 218.064005 
L 113.350909 217.999984 
L 113.655273 217.512348 
L 113.959636 217.503503 
L 114.872727 216.090915 
L 115.177091 216.06282 
L 115.481455 215.598891 
L 115.785818 215.577131 
L 116.090182 215.105647 
L 116.394545 215.097599 
L 116.698909 214.654683 
L 117.003273 214.651816 
L 117.307636 214.149977 
L 117.612 214.142661 
L 117.916364 213.642537 
L 118.220727 213.635381 
L 118.525091 213.150838 
L 118.829455 213.161281 
L 119.133818 212.648344 
L 119.438182 212.680999 
L 119.742545 212.229774 
L 120.046909 212.211925 
L 120.96 210.716441 
L 121.264364 211.183792 
L 121.568727 210.442962 
L 121.873091 210.424603 
L 122.177455 209.949418 
L 122.481818 209.944289 
L 122.786182 209.458425 
L 123.090545 209.46509 
L 123.394909 208.96702 
L 123.699273 208.970128 
L 124.003636 208.493812 
L 124.308 208.470739 
L 124.612364 207.990117 
L 124.916727 207.973689 
L 125.221091 207.485108 
L 125.525455 207.496475 
L 125.829818 207.005892 
L 126.134182 207.062711 
L 126.438545 206.576375 
L 126.742909 206.556714 
L 127.047273 206.102597 
L 127.351636 206.086054 
L 127.656 205.609974 
L 127.960364 205.624326 
L 128.873455 204.030098 
L 129.177818 204.017245 
L 129.482182 203.559043 
L 129.786545 203.991455 
L 130.090909 203.518224 
L 130.395273 203.531122 
L 130.699636 203.042225 
L 131.004 203.007411 
L 131.308364 202.511096 
L 131.612727 202.499196 
L 131.917091 202.025366 
L 132.221455 202.032758 
L 132.525818 201.566478 
L 132.830182 201.55397 
L 133.134545 201.080816 
L 133.743273 201.014494 
L 134.047636 201.562225 
L 134.352 201.056871 
L 134.656364 201.080087 
L 134.960727 200.599651 
L 135.265091 200.587507 
L 135.569455 200.104215 
L 135.873818 200.126601 
L 136.178182 199.402284 
L 136.786909 199.32538 
L 137.091273 199.568029 
L 137.395636 199.089063 
L 137.7 199.074645 
L 138.004364 198.322894 
L 138.308727 198.335426 
L 138.613091 197.868412 
L 138.917455 197.85394 
L 139.221818 196.862997 
L 139.526182 196.801852 
L 139.830545 195.808538 
L 140.134909 195.773914 
L 140.439273 195.288761 
L 140.743636 195.277313 
L 141.048 194.790386 
L 141.352364 194.805686 
L 141.656727 194.345854 
L 141.961091 194.329009 
L 142.265455 193.83712 
L 142.569818 193.827386 
L 142.874182 193.345002 
L 143.178545 193.344113 
L 143.482909 192.874348 
L 143.787273 192.864186 
L 144.091636 192.371103 
L 144.396 192.359379 
L 144.700364 191.87873 
L 145.004727 191.877635 
L 145.309091 191.429203 
L 145.613455 191.396765 
L 145.917818 190.907922 
L 146.526545 190.834458 
L 146.830909 191.350685 
L 147.135273 190.866959 
L 147.439636 190.862908 
L 147.744 190.381071 
L 148.048364 190.350747 
L 148.352727 189.863769 
L 148.657091 189.865213 
L 148.961455 189.374821 
L 149.265818 189.386373 
L 149.570182 188.915645 
L 149.874545 188.871656 
L 150.178909 188.094176 
L 150.483273 188.108852 
L 150.787636 187.621456 
L 151.092 188.097281 
L 151.396364 187.615736 
L 152.005091 187.581298 
L 152.309455 188.08503 
L 152.613818 187.596675 
L 152.918182 187.630383 
L 153.222545 187.129549 
L 153.526909 187.557677 
L 153.831273 190.864812 
L 154.44 190.973583 
L 155.048727 191.084282 
L 158.396727 191.471432 
L 158.701091 187.728573 
L 159.005455 187.659374 
L 159.309818 188.17222 
L 159.614182 187.684711 
L 159.918545 188.194578 
L 160.527273 188.08309 
L 160.831636 187.352482 
L 161.136 187.354273 
L 161.440364 186.856438 
L 161.744727 186.918537 
L 162.049091 186.427704 
L 162.353455 186.437617 
L 162.657818 185.950789 
L 162.962182 185.941104 
L 163.266545 185.453119 
L 163.570909 185.455643 
L 163.875273 184.969506 
L 164.179636 184.982611 
L 164.484 184.516919 
L 164.788364 184.482417 
L 165.092727 183.999578 
L 165.397091 183.995045 
L 165.701455 183.514492 
L 166.005818 183.543491 
L 166.310182 182.545704 
L 166.614545 182.485217 
L 166.918909 181.98556 
L 167.223273 185.770859 
L 168.136364 185.869113 
L 169.049455 185.992045 
L 169.658182 186.069567 
L 170.875636 186.200248 
L 171.788727 186.406718 
L 173.310545 186.576087 
L 174.223636 186.746914 
L 175.136727 186.81791 
L 176.049818 186.996697 
L 176.962909 187.084584 
L 178.789091 187.328166 
L 179.702182 187.400519 
L 180.615273 187.588316 
L 181.224 187.665053 
L 181.528364 183.92012 
L 181.832727 183.449603 
L 182.137091 183.452133 
L 182.441455 182.376918 
L 182.745818 182.342431 
L 183.050182 181.870194 
L 183.354545 181.844019 
L 183.658909 181.356338 
L 183.963273 181.336348 
L 184.267636 180.832611 
L 184.572 181.308668 
L 184.876364 181.240672 
L 185.180727 181.558155 
L 185.485091 181.069924 
L 185.789455 181.089749 
L 186.093818 180.615952 
L 186.398182 180.608455 
L 186.702545 180.112543 
L 187.006909 180.114935 
L 187.311273 179.651871 
L 187.615636 179.635644 
L 187.92 179.141336 
L 188.224364 179.163047 
L 188.528727 178.683653 
L 188.833091 178.676217 
L 189.137455 178.218024 
L 189.441818 178.208165 
L 190.354909 176.595955 
L 190.659273 176.589467 
L 190.963636 176.125591 
L 191.268 176.109291 
L 191.572364 175.353731 
L 191.876727 175.378104 
L 192.181091 174.902124 
L 192.485455 174.890714 
L 192.789818 174.409578 
L 193.094182 174.398026 
L 193.398545 173.914456 
L 193.702909 173.916692 
L 194.007273 173.452572 
L 194.311636 173.448011 
L 194.616 172.981091 
L 194.920364 172.944205 
L 195.224727 172.468777 
L 195.529091 172.462708 
L 195.833455 171.973176 
L 196.137818 171.96469 
L 196.442182 171.46983 
L 196.746545 171.497793 
L 197.355273 170.350854 
L 197.659636 169.860835 
L 197.964 170.329833 
L 198.268364 169.875577 
L 198.572727 169.88458 
L 198.877091 169.411788 
L 199.181455 169.83477 
L 199.485818 169.3866 
L 199.790182 169.368167 
L 200.094545 168.903545 
L 200.398909 168.878223 
L 200.703273 168.388534 
L 201.007636 168.400233 
L 201.312 167.935902 
L 201.616364 167.935098 
L 201.920727 167.495179 
L 202.225091 167.486826 
L 202.529455 167.020985 
L 202.833818 167.086176 
L 203.138182 166.589234 
L 203.442545 166.593912 
L 203.746909 166.078825 
L 204.051273 166.065903 
L 204.355636 165.568962 
L 204.66 165.581377 
L 204.964364 165.102979 
L 205.268727 165.131475 
L 205.573091 164.658943 
L 205.877455 164.639977 
L 206.181818 164.175095 
L 206.486182 164.19307 
L 206.790545 163.704771 
L 207.094909 163.724296 
L 207.399273 163.292272 
L 207.703636 163.265195 
L 208.008 162.781029 
L 208.312364 162.782636 
L 208.616727 162.293891 
L 208.921091 162.305856 
L 209.225455 161.801717 
L 209.529818 161.846182 
L 209.834182 161.376935 
L 210.138545 161.374121 
L 210.442909 160.876546 
L 210.747273 160.905451 
L 211.051636 160.410813 
L 211.356 160.4256 
L 211.660364 159.928938 
L 211.964727 159.947101 
L 212.269091 159.508485 
L 212.877818 158.359451 
L 213.182182 158.380333 
L 213.486545 157.904757 
L 213.790909 157.941026 
L 214.095273 157.465317 
L 214.399636 157.4413 
L 214.704 156.95366 
L 215.008364 156.938961 
L 215.312727 155.954012 
L 215.617091 156.586883 
L 216.530182 154.989125 
L 216.834545 154.958859 
L 217.138909 154.461458 
L 217.443273 154.476004 
L 217.747636 153.981549 
L 218.052 154.006163 
L 218.965091 152.527438 
L 219.269455 152.511539 
L 220.182545 151.013748 
L 220.486909 151.034941 
L 220.791273 150.58507 
L 221.095636 150.599704 
L 221.4 150.118442 
L 221.704364 150.123935 
L 222.008727 149.630102 
L 222.313091 149.629929 
L 222.617455 149.168881 
L 222.921818 149.168019 
L 223.834909 147.725777 
L 224.139273 147.741707 
L 224.443636 147.258082 
L 224.748 147.277271 
L 225.052364 146.771411 
L 225.356727 146.767182 
L 225.661091 145.783676 
L 225.965455 145.743048 
L 226.269818 145.270817 
L 226.878545 145.248268 
L 227.182909 144.804283 
L 227.487273 144.751722 
L 227.791636 144.272688 
L 228.096 144.244286 
L 228.400364 143.750304 
L 228.704727 143.768159 
L 229.009091 143.285918 
L 229.313455 143.294688 
L 229.617818 142.851852 
L 229.922182 142.815936 
L 230.226545 142.336191 
L 230.530909 142.314385 
L 230.835273 141.824105 
L 231.139636 141.834486 
L 231.444 141.39929 
L 231.748364 141.378836 
L 232.052727 140.910392 
L 232.357091 140.877016 
L 232.661455 140.379616 
L 232.965818 140.816758 
L 233.270182 140.36721 
L 233.574545 140.368417 
L 233.878909 139.889324 
L 234.183273 139.890759 
L 234.487636 139.464734 
L 234.792 139.452052 
L 235.096364 138.523899 
L 235.400727 138.027469 
L 236.009455 137.941631 
L 236.313818 138.184707 
L 236.618182 137.71569 
L 236.922545 137.700383 
L 237.226909 137.215491 
L 237.531273 137.198962 
L 237.835636 136.71148 
L 238.14 136.721343 
L 238.444364 136.238194 
L 238.748727 136.233283 
L 239.053091 135.756103 
L 239.357455 135.74332 
L 239.661818 135.290176 
L 239.966182 135.278504 
L 240.270545 134.812657 
L 240.574909 134.833491 
L 240.879273 134.383932 
L 241.183636 134.339767 
L 241.488 133.869512 
L 241.792364 133.845237 
L 242.096727 133.364783 
L 242.401091 133.381592 
L 242.705455 132.896515 
L 243.009818 132.902003 
L 243.314182 132.395694 
L 243.618545 132.853642 
L 243.922909 132.381865 
L 244.227273 132.372197 
L 244.531636 131.8828 
L 244.836 131.878882 
L 245.140364 131.400449 
L 245.444727 131.392424 
L 245.749091 130.395593 
L 246.053455 130.382249 
L 246.357818 129.91216 
L 246.662182 129.933256 
L 246.966545 129.481228 
L 247.270909 129.469462 
L 247.879636 128.325318 
L 248.184 127.55109 
L 248.488364 128.798374 
L 248.792727 128.315334 
L 249.097091 128.341863 
L 249.401455 127.873297 
L 249.705818 127.849001 
L 250.010182 127.378776 
L 250.314545 127.362839 
L 250.618909 126.889813 
L 250.923273 126.867014 
L 251.227636 126.387534 
L 251.532 126.38413 
L 251.836364 125.880907 
L 252.140727 125.901203 
L 252.445091 124.892503 
L 252.749455 124.84545 
L 253.053818 124.34294 
L 253.662545 124.291956 
L 253.966909 124.556102 
L 254.271273 124.057412 
L 254.575636 124.039199 
L 254.88 123.562689 
L 255.184364 123.601758 
L 255.488727 123.121872 
L 255.793091 123.099764 
L 256.097455 122.624348 
L 256.401818 122.606173 
L 256.706182 122.13791 
L 257.314909 122.055012 
L 257.619273 122.57707 
L 257.923636 122.100588 
L 258.228 122.074986 
L 258.532364 121.605546 
L 258.836727 121.60822 
L 259.141091 121.13631 
L 259.445455 121.148496 
L 259.749818 120.680991 
L 260.054182 120.671502 
L 260.358545 120.171568 
L 260.662909 120.167818 
L 260.967273 119.693997 
L 261.271636 119.690073 
L 261.576 119.201938 
L 261.880364 119.217241 
L 262.184727 118.747124 
L 262.489091 118.738761 
L 262.793455 118.265817 
L 263.097818 118.258723 
L 263.402182 117.762945 
L 263.706545 117.779941 
L 264.010909 117.311013 
L 264.315273 117.315093 
L 264.619636 116.85975 
L 264.924 116.881209 
L 265.228364 116.369814 
L 265.532727 116.400907 
L 265.837091 115.91287 
L 266.141455 115.931164 
L 267.054545 114.436834 
L 267.358909 114.426788 
L 267.663273 113.968648 
L 267.967636 113.981195 
L 268.272 113.510115 
L 268.576364 113.486632 
L 268.880727 113.016248 
L 269.185091 112.982404 
L 269.489455 112.54179 
L 270.098182 112.450596 
L 270.402545 112.735155 
L 270.706909 112.248924 
L 271.011273 112.231543 
L 271.315636 111.751161 
L 271.62 111.75446 
L 271.924364 111.264209 
L 272.228727 111.24808 
L 272.533091 110.761613 
L 272.837455 110.754776 
L 273.750545 109.294156 
L 274.054909 109.286028 
L 274.359273 108.804817 
L 274.968 108.784195 
L 275.272364 108.297843 
L 275.576727 108.278433 
L 275.881091 107.79105 
L 276.185455 107.787229 
L 276.489818 107.308041 
L 276.794182 107.287433 
L 277.098545 106.807043 
L 277.402909 106.79217 
L 277.707273 106.038906 
L 278.011636 106.056942 
L 278.316 105.570015 
L 278.620364 105.569251 
L 278.924727 105.082681 
L 279.229091 105.063972 
L 279.533455 104.34495 
L 279.837818 104.342051 
L 280.142182 107.684748 
L 281.055273 107.810277 
L 281.968364 107.903731 
L 282.577091 107.982849 
L 283.794545 108.125222 
L 284.707636 108.278307 
L 285.316364 108.371513 
L 287.446909 108.634584 
L 289.881818 109.035285 
L 290.186182 105.338386 
L 290.490545 104.353809 
L 291.099273 104.22577 
L 291.403636 104.463185 
L 291.708 103.97765 
L 292.316727 103.903439 
L 292.621091 104.193325 
L 292.925455 103.746555 
L 293.229818 104.161015 
L 293.534182 103.692365 
L 293.838545 103.667058 
L 295.360364 101.233792 
L 295.664727 101.190593 
L 296.577818 99.586579 
L 296.882182 99.5931 
L 297.186545 99.126843 
L 297.490909 99.135145 
L 297.795273 98.662167 
L 298.099636 98.628217 
L 298.404 98.139142 
L 298.708364 98.144275 
L 299.012727 97.692869 
L 299.317091 97.674969 
L 299.621455 97.216798 
L 299.925818 97.207687 
L 300.230182 96.732119 
L 300.534545 96.719657 
L 300.838909 96.235693 
L 301.143273 96.246985 
L 301.447636 95.807978 
L 301.752 96.211508 
L 302.056364 95.771184 
L 302.360727 95.741866 
L 302.665091 95.259482 
L 302.969455 95.250638 
L 303.273818 94.781111 
L 303.578182 94.748987 
L 303.882545 94.293683 
L 304.186909 94.301796 
L 304.491273 93.810951 
L 304.795636 93.785182 
L 305.1 93.318034 
L 305.404364 93.30797 
L 305.708727 92.819494 
L 306.013091 92.832133 
L 306.317455 92.33471 
L 306.621818 92.349426 
L 306.926182 91.906363 
L 307.230545 91.878141 
L 307.534909 91.389896 
L 307.839273 91.374915 
L 308.143636 90.883993 
L 308.448 90.953765 
L 308.752364 90.448462 
L 309.056727 90.436771 
L 309.361091 89.93858 
L 309.665455 89.958147 
L 309.969818 89.471716 
L 310.274182 89.476198 
L 310.578545 89.004879 
L 310.882909 89.051889 
L 311.796 87.43195 
L 312.100364 87.42255 
L 312.404727 86.949374 
L 312.709091 86.948679 
L 313.013455 86.457065 
L 313.317818 86.437782 
L 313.622182 85.950875 
L 313.926545 85.97389 
L 314.230909 85.526639 
L 314.535273 85.483104 
L 314.839636 84.996064 
L 315.144 85.000283 
L 315.448364 84.52277 
L 315.752727 84.518956 
L 316.665818 83.016528 
L 316.970182 83.013054 
L 317.274545 82.529629 
L 317.578909 82.548769 
L 317.883273 82.075695 
L 318.187636 82.083011 
L 318.492 81.600211 
L 318.796364 81.566956 
L 319.100727 81.073039 
L 319.405091 81.089169 
L 319.709455 80.600061 
L 320.013818 80.596905 
L 320.318182 80.115372 
L 320.622545 80.094811 
L 320.926909 79.635526 
L 321.231273 79.618064 
L 321.535636 79.129021 
L 321.84 79.137641 
L 322.144364 78.661579 
L 322.448727 78.662752 
L 322.753091 78.19516 
L 323.361818 78.869873 
L 323.666182 78.38065 
L 323.970545 78.388683 
L 324.274909 77.900474 
L 324.579273 77.907647 
L 324.883636 77.427707 
L 325.188 77.426009 
L 325.492364 76.948468 
L 325.796727 76.951741 
L 326.101091 76.452089 
L 326.405455 76.459616 
L 326.709818 75.979382 
L 327.014182 75.961921 
L 327.318545 75.530296 
L 327.927273 75.432621 
L 328.231636 75.727507 
L 328.536 75.678942 
L 328.840364 75.389373 
L 329.144727 74.899697 
L 329.449091 74.901475 
L 329.753455 74.42146 
L 330.057818 74.404818 
L 330.362182 73.924818 
L 330.666545 73.926948 
L 330.970909 73.450182 
L 331.275273 73.426441 
L 331.579636 72.936886 
L 331.884 72.923323 
L 332.188364 72.434427 
L 332.492727 72.439139 
L 332.797091 71.944603 
L 333.101455 71.941033 
L 333.405818 71.463885 
L 333.710182 71.906234 
L 334.014545 71.421813 
L 334.318909 71.488348 
L 334.623273 70.988978 
L 334.927636 71.014758 
L 335.232 70.544664 
L 335.536364 70.999351 
L 335.840727 70.526498 
L 336.145091 70.507752 
L 336.449455 70.021757 
L 336.753818 70.022531 
L 337.058182 69.553805 
L 337.362545 69.570252 
L 338.275636 67.968172 
L 338.58 67.96657 
L 338.884364 67.49313 
L 339.188727 67.515387 
L 339.493091 67.046442 
L 339.797455 67.017086 
L 340.101818 66.549346 
L 341.014909 66.429902 
L 341.319273 66.964303 
L 341.623636 66.913225 
L 341.928 67.169326 
L 342.232364 66.672559 
L 342.536727 66.660543 
L 342.841091 66.175323 
L 343.145455 66.177598 
L 343.449818 65.700664 
L 343.754182 66.162293 
L 344.058545 65.710176 
L 344.362909 65.662341 
L 344.667273 65.17356 
L 344.971636 65.165454 
L 345.276 64.69172 
L 345.580364 64.698284 
L 345.884727 64.219107 
L 346.493455 64.168305 
L 346.797818 64.664766 
L 347.102182 64.18812 
L 347.406545 64.178015 
L 347.710909 63.728723 
L 348.015273 63.703704 
L 348.319636 63.233152 
L 348.624 63.24026 
L 348.928364 62.755728 
L 349.232727 62.768074 
L 349.537091 62.267671 
L 349.841455 62.277245 
L 350.145818 61.296274 
L 350.450182 61.240537 
L 350.754545 60.767303 
L 351.058909 60.742605 
L 351.363273 60.256325 
L 351.667636 60.255114 
L 351.972 59.765332 
L 352.276364 59.781498 
L 352.580727 59.308784 
L 353.189455 59.249784 
L 353.493818 59.493158 
L 353.798182 59.016039 
L 354.102545 59.027513 
L 354.406909 58.577572 
L 354.711273 58.526959 
L 355.015636 58.045737 
L 355.32 58.081549 
L 355.624364 57.585162 
L 355.928727 57.578713 
L 356.233091 57.106626 
L 356.841818 57.064793 
L 357.146182 56.605126 
L 357.754909 56.519166 
L 358.059273 56.714177 
L 358.363636 56.279117 
L 358.668 56.290889 
L 358.972364 55.794363 
L 359.581091 55.761994 
L 359.885455 55.276257 
L 360.189818 55.295218 
L 360.494182 54.824385 
L 360.798545 54.808893 
L 361.102909 54.338889 
L 361.407273 54.335522 
L 361.711636 53.856707 
L 362.016 53.846817 
L 362.320364 53.354451 
L 362.624727 53.345786 
L 362.929091 52.858957 
L 363.233455 52.87496 
L 363.537818 52.410123 
L 363.842182 52.406084 
L 364.146545 51.924342 
L 364.450909 51.918827 
L 364.755273 51.449188 
L 365.364 51.383658 
L 365.668364 51.914468 
L 365.972727 51.440402 
L 366.277091 51.410172 
L 366.581455 50.934248 
L 366.885818 50.925597 
L 367.190182 50.436891 
L 367.494545 50.450563 
L 367.798909 49.968578 
L 368.103273 49.954985 
L 368.407636 49.473743 
L 368.712 49.455254 
L 369.016364 48.968894 
L 369.320727 48.956559 
L 369.625091 48.469152 
L 369.929455 48.469844 
L 370.233818 48.012959 
L 370.842545 46.861714 
L 371.146909 46.877709 
L 371.451273 46.383559 
L 371.755636 46.407855 
L 372.06 45.918922 
L 372.364364 45.933209 
L 372.668727 45.451196 
L 372.973091 45.458781 
L 373.277455 44.476668 
L 373.581818 44.443636 
L 373.581818 44.443636 
" style="fill:none;stroke:#1f77b4;stroke-linecap:square;stroke-width:1.5;"/>
   </g>
   <g id="patch_3">
    <path d="M 54 252 
L 54 34.56 
" style="fill:none;stroke:#000000;stroke-linecap:square;stroke-linejoin:miter;stroke-width:0.8;"/>
   </g>
   <g id="patch_4">
    <path d="M 388.8 252 
L 388.8 34.56 
" style="fill:none;stroke:#000000;stroke-linecap:square;stroke-linejoin:miter;stroke-width:0.8;"/>
   </g>
   <g id="patch_5">
    <path d="M 54 252 
L 388.8 252 
" style="fill:none;stroke:#000000;stroke-linecap:square;stroke-linejoin:miter;stroke-width:0.8;"/>
   </g>
   <g id="patch_6">
    <path d="M 54 34.56 
L 388.8 34.56 
" style="fill:none;stroke:#000000;stroke-linecap:square;stroke-linejoin:miter;stroke-width:0.8;"/>
   </g>
   <g id="text_15">
    <!-- Cummulative reward over time for -->
    <defs>
     <path d="M 37.109375 75.984375 
L 37.109375 68.5 
L 28.515625 68.5 
Q 23.6875 68.5 21.796875 66.546875 
Q 19.921875 64.59375 19.921875 59.515625 
L 19.921875 54.6875 
L 34.71875 54.6875 
L 34.71875 47.703125 
L 19.921875 47.703125 
L 19.921875 0 
L 10.890625 0 
L 10.890625 47.703125 
L 2.296875 47.703125 
L 2.296875 54.6875 
L 10.890625 54.6875 
L 10.890625 58.5 
Q 10.890625 67.625 15.140625 71.796875 
Q 19.390625 75.984375 28.609375 75.984375 
z
" id="DejaVuSans-102"/>
    </defs>
    <g transform="translate(117.481875 15.122625)scale(0.12 -0.12)">
     <use xlink:href="#DejaVuSans-67"/>
     <use x="69.824219" xlink:href="#DejaVuSans-117"/>
     <use x="133.203125" xlink:href="#DejaVuSans-109"/>
     <use x="230.615234" xlink:href="#DejaVuSans-109"/>
     <use x="328.027344" xlink:href="#DejaVuSans-117"/>
     <use x="391.40625" xlink:href="#DejaVuSans-108"/>
     <use x="419.189453" xlink:href="#DejaVuSans-97"/>
     <use x="480.46875" xlink:href="#DejaVuSans-116"/>
     <use x="519.677734" xlink:href="#DejaVuSans-105"/>
     <use x="547.460938" xlink:href="#DejaVuSans-118"/>
     <use x="606.640625" xlink:href="#DejaVuSans-101"/>
     <use x="668.164062" xlink:href="#DejaVuSans-32"/>
     <use x="699.951172" xlink:href="#DejaVuSans-114"/>
     <use x="741.033203" xlink:href="#DejaVuSans-101"/>
     <use x="802.556641" xlink:href="#DejaVuSans-119"/>
     <use x="884.34375" xlink:href="#DejaVuSans-97"/>
     <use x="945.623047" xlink:href="#DejaVuSans-114"/>
     <use x="986.720703" xlink:href="#DejaVuSans-100"/>
     <use x="1050.197266" xlink:href="#DejaVuSans-32"/>
     <use x="1081.984375" xlink:href="#DejaVuSans-111"/>
     <use x="1143.166016" xlink:href="#DejaVuSans-118"/>
     <use x="1202.345703" xlink:href="#DejaVuSans-101"/>
     <use x="1263.869141" xlink:href="#DejaVuSans-114"/>
     <use x="1304.982422" xlink:href="#DejaVuSans-32"/>
     <use x="1336.769531" xlink:href="#DejaVuSans-116"/>
     <use x="1375.978516" xlink:href="#DejaVuSans-105"/>
     <use x="1403.761719" xlink:href="#DejaVuSans-109"/>
     <use x="1501.173828" xlink:href="#DejaVuSans-101"/>
     <use x="1562.697266" xlink:href="#DejaVuSans-32"/>
     <use x="1594.484375" xlink:href="#DejaVuSans-102"/>
     <use x="1629.689453" xlink:href="#DejaVuSans-111"/>
     <use x="1690.871094" xlink:href="#DejaVuSans-114"/>
    </g>
    <!--  epsilon=0.1 alpha=0.2 gamma=0.7 -->
    <defs>
     <path d="M 10.59375 45.40625 
L 73.1875 45.40625 
L 73.1875 37.203125 
L 10.59375 37.203125 
z
M 10.59375 25.484375 
L 73.1875 25.484375 
L 73.1875 17.1875 
L 10.59375 17.1875 
z
" id="DejaVuSans-61"/>
     <path d="M 10.6875 12.40625 
L 21 12.40625 
L 21 0 
L 10.6875 0 
z
" id="DejaVuSans-46"/>
     <path d="M 54.890625 33.015625 
L 54.890625 0 
L 45.90625 0 
L 45.90625 32.71875 
Q 45.90625 40.484375 42.875 44.328125 
Q 39.84375 48.1875 33.796875 48.1875 
Q 26.515625 48.1875 22.3125 43.546875 
Q 18.109375 38.921875 18.109375 30.90625 
L 18.109375 0 
L 9.078125 0 
L 9.078125 75.984375 
L 18.109375 75.984375 
L 18.109375 46.1875 
Q 21.34375 51.125 25.703125 53.5625 
Q 30.078125 56 35.796875 56 
Q 45.21875 56 50.046875 50.171875 
Q 54.890625 44.34375 54.890625 33.015625 
z
" id="DejaVuSans-104"/>
     <path d="M 45.40625 27.984375 
Q 45.40625 37.75 41.375 43.109375 
Q 37.359375 48.484375 30.078125 48.484375 
Q 22.859375 48.484375 18.828125 43.109375 
Q 14.796875 37.75 14.796875 27.984375 
Q 14.796875 18.265625 18.828125 12.890625 
Q 22.859375 7.515625 30.078125 7.515625 
Q 37.359375 7.515625 41.375 12.890625 
Q 45.40625 18.265625 45.40625 27.984375 
z
M 54.390625 6.78125 
Q 54.390625 -7.171875 48.1875 -13.984375 
Q 42 -20.796875 29.203125 -20.796875 
Q 24.46875 -20.796875 20.265625 -20.09375 
Q 16.0625 -19.390625 12.109375 -17.921875 
L 12.109375 -9.1875 
Q 16.0625 -11.328125 19.921875 -12.34375 
Q 23.78125 -13.375 27.78125 -13.375 
Q 36.625 -13.375 41.015625 -8.765625 
Q 45.40625 -4.15625 45.40625 5.171875 
L 45.40625 9.625 
Q 42.625 4.78125 38.28125 2.390625 
Q 33.9375 0 27.875 0 
Q 17.828125 0 11.671875 7.65625 
Q 5.515625 15.328125 5.515625 27.984375 
Q 5.515625 40.671875 11.671875 48.328125 
Q 17.828125 56 27.875 56 
Q 33.9375 56 38.28125 53.609375 
Q 42.625 51.21875 45.40625 46.390625 
L 45.40625 54.6875 
L 54.390625 54.6875 
z
" id="DejaVuSans-103"/>
     <path d="M 8.203125 72.90625 
L 55.078125 72.90625 
L 55.078125 68.703125 
L 28.609375 0 
L 18.3125 0 
L 43.21875 64.59375 
L 8.203125 64.59375 
z
" id="DejaVuSans-55"/>
    </defs>
    <g transform="translate(111.0525 28.56)scale(0.12 -0.12)">
     <use xlink:href="#DejaVuSans-32"/>
     <use x="31.787109" xlink:href="#DejaVuSans-101"/>
     <use x="93.310547" xlink:href="#DejaVuSans-112"/>
     <use x="156.787109" xlink:href="#DejaVuSans-115"/>
     <use x="208.886719" xlink:href="#DejaVuSans-105"/>
     <use x="236.669922" xlink:href="#DejaVuSans-108"/>
     <use x="264.453125" xlink:href="#DejaVuSans-111"/>
     <use x="325.634766" xlink:href="#DejaVuSans-110"/>
     <use x="389.013672" xlink:href="#DejaVuSans-61"/>
     <use x="472.802734" xlink:href="#DejaVuSans-48"/>
     <use x="536.425781" xlink:href="#DejaVuSans-46"/>
     <use x="568.212891" xlink:href="#DejaVuSans-49"/>
     <use x="631.835938" xlink:href="#DejaVuSans-32"/>
     <use x="663.623047" xlink:href="#DejaVuSans-97"/>
     <use x="724.902344" xlink:href="#DejaVuSans-108"/>
     <use x="752.685547" xlink:href="#DejaVuSans-112"/>
     <use x="816.162109" xlink:href="#DejaVuSans-104"/>
     <use x="879.541016" xlink:href="#DejaVuSans-97"/>
     <use x="940.820312" xlink:href="#DejaVuSans-61"/>
     <use x="1024.609375" xlink:href="#DejaVuSans-48"/>
     <use x="1088.232422" xlink:href="#DejaVuSans-46"/>
     <use x="1120.019531" xlink:href="#DejaVuSans-50"/>
     <use x="1183.642578" xlink:href="#DejaVuSans-32"/>
     <use x="1215.429688" xlink:href="#DejaVuSans-103"/>
     <use x="1278.90625" xlink:href="#DejaVuSans-97"/>
     <use x="1340.185547" xlink:href="#DejaVuSans-109"/>
     <use x="1437.597656" xlink:href="#DejaVuSans-109"/>
     <use x="1535.009766" xlink:href="#DejaVuSans-97"/>
     <use x="1596.289062" xlink:href="#DejaVuSans-61"/>
     <use x="1680.078125" xlink:href="#DejaVuSans-48"/>
     <use x="1743.701172" xlink:href="#DejaVuSans-46"/>
     <use x="1775.488281" xlink:href="#DejaVuSans-55"/>
    </g>
   </g>
  </g>
 </g>
 <defs>
  <clipPath id="p4a8fbfdbc4">
   <rect height="217.44" width="334.8" x="54" y="34.56"/>
  </clipPath>
 </defs>
</svg>
